<svg width="263" height="51" viewBox="0 0 263 51" fill="none" xmlns="http://www.w3.org/2000/svg">
<path d="M0 0V9.52073H9.52241V43.07H19.4983V9.52073H29.0207V0H0Z" fill="white"/>
<path fill-rule="evenodd" clip-rule="evenodd" d="M37.1828 0V43.07H46.7052V35.3627L53.0534 43.07H67.1103L56.681 30.149C56.681 30.149 67.3371 26.0687 67.3371 15.6412C67.3371 5.21373 56.4543 0 53.0534 0H37.1828ZM47.1586 21.7617V9.52073C47.1586 9.52073 56.2276 8.84068 56.2276 15.8679C56.2276 22.8951 47.1586 21.7617 47.1586 21.7617Z" fill="white"/>
<path d="M75.7259 0V43.07H85.7017V0H75.7259Z" fill="white"/>
<path d="M105.653 43.07H115.629L127.419 0H117.443L110.641 23.5751L104.066 0H93.8638L105.653 43.07Z" fill="white"/>
<path d="M136.034 0V43.07H145.557V0H136.034Z" fill="white"/>
<path fill-rule="evenodd" clip-rule="evenodd" d="M164.148 43.07H154.172L165.509 0H176.165L187.728 43.07H177.298L176.391 38.0829H165.509L164.148 43.07ZM168.229 29.0156L170.723 19.0415L173.217 29.0156H168.229Z" fill="white"/>
<path d="M195.89 0V43.07H221.283V33.5492H205.866V0H195.89Z" fill="white"/>
<path d="M229.445 0V41.2565V43.07H254.838V34.0026V33.5492H241.688H239.421V25.842H254.838V17.228V16.7746H241.688H239.421V9.06736H254.838V0H229.445Z" fill="white"/>
<path d="M9.29569 11.3342V17.228H7.70862L2.26724 11.3342H9.29569Z" fill="#AD00FF"/>
<path d="M12.2431 45.3368L17.231 50.7772H27.2069V17.228H36.7293V7.70726L31.2879 2.72021V11.3342H21.7655V45.3368H12.2431Z" fill="#3ADB5D"/>
<path d="M39.45 45.3368L44.8914 50.7772H54.8672V45.3368L49.4259 38.9897V45.3368H39.45Z" fill="#4CE0C3"/>
<path d="M49.4259 11.7876V21.535C49.4259 21.535 55.7741 20.6283 55.7741 15.8679C55.7741 11.1075 49.4259 11.7876 49.4259 11.7876Z" fill="#4CE0C3"/>
<path d="M55.7741 45.3368L60.7621 50.7772H74.819L65.2965 38.5363C65.2965 38.5363 75.2724 34.456 75.2724 23.5751C75.2724 12.6943 66.6569 8.38731 66.6569 8.38731C66.6569 8.38731 71.8716 17.228 68.4707 23.5751C65.0698 29.9223 59.4017 32.6425 59.4017 32.6425L69.3776 45.3368H55.7741Z" fill="#FFBB00"/>
<path d="M87.969 2.72021V45.3368H78.4465L83.4345 50.7772H93.4103V7.70726L87.969 2.72021Z" fill="#AD00FF"/>
<path d="M108.374 45.3368L113.362 50.7772H123.791L135.581 8.16063L129.686 2.72021L117.67 45.3368H108.374Z" fill="#AD00FF"/>
<path d="M106.56 2.72021L112.002 7.70726L113.362 12.6943L111.095 20.4016L106.56 2.72021Z" fill="#FFBB00"/>
<path d="M138.302 45.3368L143.743 50.7772H153.719V7.70726L148.278 2.72021V45.3368H138.302Z" fill="#AD00FF"/>
<path d="M156.44 45.3368L161.428 50.7772H172.31L173.671 46.2435H180.472L179.112 43.2967H177.072L176.618 40.3498H167.776L166.416 45.3368H156.44Z" fill="#FFBB00"/>
<path d="M171.857 24.9352L170.497 28.7889H172.991L171.857 24.9352Z" fill="#FF5E5E"/>
<path d="M180.246 45.3368L185.007 50.7772H195.436L184.1 8.16063L178.885 3.17358L189.995 45.3368H180.246Z" fill="#4CE0C3"/>
<path d="M198.61 45.3368L203.598 50.7772H229.445V43.07V41.2565L223.55 36.2695V45.3368H198.61Z" fill="#AD00FF"/>
<path d="M208.133 2.26684L213.574 7.70726V33.3226H208.133V2.26684Z" fill="#00BBFA"/>
<path d="M232.166 45.3368L237.153 50.7772H263V41.7099L257.105 36.2695V45.3368H232.166Z" fill="#FF5E5E"/>
<path d="M254.838 33.5492V34.0026H263V24.9352L257.105 19.4948V28.5622H241.688V33.5492H254.838Z" fill="#AD00FF"/>
<path d="M241.688 11.3342V16.5479V16.7746H254.838V17.228H263V7.70726L257.105 2.26684V11.3342H241.688Z" fill="#FF5E5E"/>
</svg>
